<svg width="99" height="68" viewBox="0 0 99 68" fill="none" xmlns="http://www.w3.org/2000/svg">
<path d="M49.52 68C48.6755 68 47.8755 67.8694 44.578 66.1211C42.4534 64.9952 39.9649 63.531 37.5708 61.9985C32.6901 58.8748 25.6416 53.8514 19.7805 47.6584C17.0135 44.735 14.7881 41.4077 13.1659 37.7686C12.6583 36.6323 12.2129 35.4692 11.8316 34.2845C10.3974 29.8334 9.89798 25.2389 10.3464 20.6299C10.5121 18.9307 10.796 17.4024 11.1871 16.0874C13.3461 8.85738 18.9399 3.24181 26.1502 1.06455C28.4885 0.358131 30.8736 0 33.2386 0C39.3249 0 45.0837 2.36885 49.3731 6.57181C53.6452 2.38875 59.3766 0.019694 65.4316 0H65.5038C71.6183 0 77.6278 2.57285 81.9906 7.05902C86.3535 11.5452 88.7605 17.6298 88.5896 23.7467C88.5644 24.6458 88.4937 25.7037 88.3794 26.892C88.1373 29.4082 87.6192 31.8901 86.8345 34.2931C86.4481 35.4764 85.999 36.6384 85.4889 37.774C84.0285 41.0211 82.1037 43.9924 79.7665 46.6055C73.954 53.1032 66.7727 58.3936 61.772 61.6874C59.3261 63.2983 56.7742 64.8393 54.5862 66.0272C51.2044 67.8628 50.3846 68 49.52 68ZM49.5174 63.7654H49.5234C49.6828 63.7255 50.3561 63.5051 52.5659 62.3054C54.6517 61.1732 57.094 59.6977 59.4427 58.1509C64.2335 54.9951 71.1011 49.9406 76.6107 43.7821C78.6576 41.4936 80.3451 38.888 81.6263 36.0383C82.0745 35.0405 82.4692 34.0194 82.8088 32.9796C83.498 30.872 83.9534 28.6951 84.1666 26.488C84.2715 25.3935 84.3364 24.4313 84.3593 23.6275C84.498 18.6472 82.529 13.6839 78.9573 10.0108C75.3857 6.33762 70.4842 4.23421 65.5063 4.23421H65.4408C62.6822 4.23969 59.9586 4.85273 57.4637 6.02976C54.9688 7.2068 52.7638 8.91894 51.0053 11.0445L49.3752 13.0107L47.7453 11.0443C44.1583 6.7163 38.8717 4.23421 33.2411 4.23421C31.2912 4.23421 29.3184 4.53155 27.377 5.11787C21.5318 6.88284 16.997 11.436 15.2466 17.2982C14.9324 18.3523 14.7022 19.6114 14.5631 21.0403C14.1709 25.0694 14.6087 29.0891 15.8644 32.9868C16.1988 34.026 16.5895 35.0463 17.0347 36.043C18.4614 39.245 20.4201 42.1732 22.8573 44.7478C28.423 50.6295 35.1731 55.4356 39.854 58.4319C42.154 59.9043 44.5361 61.3062 46.5618 62.3799C48.7059 63.5166 49.3613 63.727 49.5174 63.7654Z" fill="#1EA6D6"/>
<path d="M98.3144 34.1162C98.1277 33.8379 97.8754 33.6098 97.5796 33.4522C97.2839 33.2946 96.9539 33.2122 96.6188 33.2124H61.8997C61.4503 33.2135 61.0136 33.3612 60.6557 33.6329C60.2978 33.9047 60.0383 34.2858 59.9166 34.7184L56.955 45.3482L51.0931 17.8672C50.9973 17.4182 50.7543 17.0142 50.4026 16.7192C50.051 16.4242 49.6108 16.2552 49.152 16.2391C48.6933 16.2229 48.2423 16.3606 47.8708 16.6301C47.4992 16.8997 47.2284 17.2857 47.1014 17.7267L41.2865 37.9058L40.3703 34.7045C40.246 34.2753 39.9859 33.8979 39.6291 33.6289C39.2723 33.3599 38.8379 33.2138 38.3911 33.2124H2.04278C1.70802 33.2126 1.37842 33.2949 1.08295 33.4523C0.787476 33.6096 0.535187 33.8371 0.34826 34.1149C0.161333 34.3926 0.0454931 34.7119 0.0109248 35.0449C-0.0236434 35.3779 0.0241188 35.7142 0.150012 36.0244L0.16307 36.057C0.31514 36.4341 0.576763 36.7569 0.914158 36.9838C1.25155 37.2108 1.64923 37.3313 2.05584 37.33H36.8391L39.3008 45.9309C39.4239 46.3605 39.6834 46.7384 40.0402 47.0076C40.397 47.2767 40.8316 47.4224 41.2785 47.4227C41.7254 47.4231 42.1603 47.278 42.5175 47.0094C42.8747 46.7408 43.1348 46.3633 43.2585 45.9339L48.7814 26.7678L54.6757 54.4036C54.7711 54.854 55.0149 55.2593 55.3682 55.5545C55.7214 55.8498 56.1635 56.0178 56.6237 56.0318C56.6451 56.0318 56.668 56.0318 56.6907 56.0318C57.14 56.0308 57.5768 55.8831 57.9345 55.6112C58.2923 55.3393 58.5516 54.9581 58.6729 54.5254L63.4641 37.33H96.6057C97.011 37.3311 97.4073 37.2113 97.744 36.9858C98.0807 36.7603 98.3425 36.4394 98.4957 36.0642L98.5098 36.0296C98.637 35.7191 98.6857 35.3822 98.6516 35.0484C98.6175 34.7147 98.5017 34.3945 98.3144 34.1162Z" fill="#1EA6D6"/>
</svg>
